<svg xmlns="http://www.w3.org/2000/svg" xmlns:xlink="http://www.w3.org/1999/xlink" viewBox="0 0 36 36">
<title>🇨🇳: flag: China (U+1F1E8 1F1F3) - emojiall.com</title>
<style>svg{stroke:#edf2f6;animation:dashoffset 10s both infinite,fill-opacity 10s both infinite,stroke-opacity 10s both infinite;stroke-dasharray:500%;stroke-dashoffset:500%}@keyframes stroke-opacity{2%,25%{stroke-opacity:.75;stroke-width:2%}100%,75%{stroke-opacity:0;stroke-width:0}}@keyframes fill-opacity{10%,25%{fill-opacity:0}0%,100%,50%{fill-opacity:1}}@keyframes dashoffset{0%,2%{stroke-dashoffset:500%}100%{stroke-dashoffset:0%}}</style>
<path fill="#DE2910" d="M36 27c0 2.209-1.791 4-4 4H4c-2.209 0-4-1.791-4-4V9c0-2.209 1.791-4 4-4h28c2.209 0 4 1.791 4 4v18z"/>
<path fill="#FFDE02" d="M11.136 8.977l.736.356.589-.566-.111.81.72.386-.804.144-.144.804-.386-.72-.81.111.566-.589zm4.665 2.941l-.356.735.566.59-.809-.112-.386.721-.144-.805-.805-.144.721-.386-.112-.809.59.566zm-.957 3.779l.268.772.817.017-.651.493.237.783-.671-.467-.671.467.236-.783-.651-.493.817-.017zm-3.708 3.28l.736.356.589-.566-.111.81.72.386-.804.144-.144.804-.386-.72-.81.111.566-.589zM7 10.951l.929 2.671 2.826.058-2.253 1.708.819 2.706L7 16.479l-2.321 1.615.819-2.706-2.253-1.708 2.826-.058z"/>
<a xlink:href="https://www.emojiall.com/en/emoji/%F0%9F%87%A8%F0%9F%87%B3"><text x="36" y="34" font-size="1px" fill="#888da8" text-anchor="end" font-family="apple color emoji,segoe ui emoji,noto color emoji,android emoji,emojisymbols,emojione mozilla,twemoji mozilla,segoe ui symbol,Noto Color Emoji Compat,emoji,sans-serif">🇨🇳</text></a>
<a xlink:href="https://www.emojiall.com/"><text x="36" y="35" font-size="0.8px" fill="#888da8" text-anchor="end"><title>www.emojiall.com</title>emojiall.com</text></a>
</svg>